<svg width="29" height="33" xmlns="http://www.w3.org/2000/svg"><path d="M28.057
18.394c-1.494 4.702-4.447 7.402-8.975
8.198.188-.932.279-1.882.279-2.776V6.52c0-3.017.888-6.175
9.428-6.175v15.748l-.732 2.3zM5.437 3.568V1.784H7.25v1.784H5.437zM7.25
6.243V4.46h1.813v1.784H7.25zM5.437 8.92V7.135H7.25V8.92H5.437zm-1.812
2.676V9.81h1.813v1.784H3.625zM0 1.784V0h1.813v1.784H0zm3.63
11.658h1.812v3.995h1.816v-6.683h1.815v13.06C9.073 30.011 14.5 33 14.5 33 5.383
33 0 27.477 0 20.13V5.35h1.814v9.884H3.63v-1.793zm12.088 14.18c6.735.3
11.314-2.531 13.282-8.892v1.5c0 6.926-4.845 12.221-13.122
12.77l-1.081-.592c-.179-.098-3.847-2.171-4.828-6.392 1.448.885 3.318 1.496 5.749
1.605zM3.625 5.351V3.567h1.813V5.35H3.625z" fill="#FEFEFE"
fill-rule="evenodd"/></svg>
